<?xml version="1.0" encoding="UTF-8" standalone="no"?>
<!-- Created with Inkscape (http://www.inkscape.org/) -->

<svg
   xmlns:dc="http://purl.org/dc/elements/1.1/"
   xmlns:cc="http://creativecommons.org/ns#"
   xmlns:rdf="http://www.w3.org/1999/02/22-rdf-syntax-ns#"
   xmlns:svg="http://www.w3.org/2000/svg"
   xmlns="http://www.w3.org/2000/svg"
   xmlns:sodipodi="http://sodipodi.sourceforge.net/DTD/sodipodi-0.dtd"
   xmlns:inkscape="http://www.inkscape.org/namespaces/inkscape"
   width="24"
   height="24"
   viewBox="0 0 24.000002 23.999999"
   id="svg2"
   version="1.1"
   inkscape:version="0.91 r13725"
   inkscape:export-filename="/home/gabriele/Projects/greyscale-cmte/theme/src/main/assets/overlays/com.android.systemui/res/drawable-xxhdpi/ic_sysbar_home.png"
   inkscape:export-xdpi="270"
   inkscape:export-ydpi="270"
   sodipodi:docname="ic_settings_supersu.svg">
  <defs
     id="defs4" />
  <sodipodi:namedview
     id="base"
     pagecolor="#212121"
     bordercolor="#ffffff"
     borderopacity="1"
     inkscape:pageopacity="0"
     inkscape:pageshadow="2"
     inkscape:zoom="26.481151"
     inkscape:cx="10.127194"
     inkscape:cy="12.318678"
     inkscape:document-units="px"
     inkscape:current-layer="layer1"
     showgrid="true"
     showborder="true"
     borderlayer="false"
     inkscape:showpageshadow="false"
     units="px"
     inkscape:window-width="1280"
     inkscape:window-height="969"
     inkscape:window-x="0"
     inkscape:window-y="27"
     inkscape:window-maximized="1"
     inkscape:snap-page="true"
     inkscape:snap-bbox="true"
     inkscape:bbox-nodes="false"
     inkscape:snap-bbox-edge-midpoints="true"
     inkscape:bbox-paths="true"
     inkscape:snap-grids="true"
     fit-margin-top="0"
     fit-margin-left="0"
     fit-margin-right="0"
     fit-margin-bottom="0">
    <inkscape:grid
       type="xygrid"
       id="grid5332"
       empspacing="2"
       dotted="false"
       originx="-2.0000001"
       originy="-1.9999993" />
  </sodipodi:namedview>
  <metadata
     id="metadata7">
    <rdf:RDF>
      <cc:Work
         rdf:about="">
        <dc:format>image/svg+xml</dc:format>
        <dc:type
           rdf:resource="http://purl.org/dc/dcmitype/StillImage" />
        <dc:title></dc:title>
      </cc:Work>
    </rdf:RDF>
  </metadata>
  <g
     inkscape:label="Livello 1"
     inkscape:groupmode="layer"
     id="layer1"
     transform="translate(-2,-1026.3622)"
     style="display:inline">
    <path
       style="color:#000000;font-style:normal;font-variant:normal;font-weight:normal;font-stretch:normal;font-size:medium;line-height:normal;font-family:sans-serif;text-indent:0;text-align:start;text-decoration:none;text-decoration-line:none;text-decoration-style:solid;text-decoration-color:#000000;letter-spacing:normal;word-spacing:normal;text-transform:none;direction:ltr;block-progression:tb;writing-mode:lr-tb;baseline-shift:baseline;text-anchor:start;white-space:normal;clip-rule:nonzero;display:inline;overflow:visible;visibility:visible;opacity:1;isolation:auto;mix-blend-mode:normal;color-interpolation:sRGB;color-interpolation-filters:linearRGB;solid-color:#000000;solid-opacity:1;fill:#ffffff;fill-opacity:1;fill-rule:evenodd;stroke:none;stroke-width:2.00000024;stroke-linecap:butt;stroke-linejoin:miter;stroke-miterlimit:4;stroke-dasharray:none;stroke-dashoffset:0;stroke-opacity:1;color-rendering:auto;image-rendering:auto;shape-rendering:auto;text-rendering:auto;enable-background:accumulate"
       d="m 10.000001,1028.3622 c 0,2 0,4 0,6 -2.0000001,0 -4.0000002,0 -6.0000003,0 0,0.6667 0,1.3333 0,2 2.0000001,0 4.0000002,0 6.0000003,0 0,1.3333 0,2.6667 0,4 -2.0000001,0 -4.0000002,0 -6.0000003,0 0,0.6667 0,1.3333 0,2 2.0000001,0 4.0000002,0 6.0000003,0 0,2 0,4 0,6 0.666667,0 1.333333,0 2,0 0,-2 0,-4 0,-6 1.333333,0 2.666667,0 4,0 0,2 0,4 0,6 0.666667,0 1.333333,0 2,0 0,-2 0,-4 0,-6 2,0 4,0 6,0 0,-0.6667 0,-1.3333 0,-2 -2,0 -4,0 -6,0 0,-1.3333 0,-2.6667 0,-4 2,0 4,0 6,0 0,-0.6667 0,-1.3333 0,-2 -2,0 -4,0 -6,0 0,-2 0,-4 0,-6 -0.666667,0 -1.333333,0 -2,0 0,2 0,4 0,6 -1.333333,0 -2.666667,0 -4,0 0,-2 0,-4 0,-6 -0.666667,0 -1.333333,0 -2,0 z m 2,8 c 1.333333,0 2.666667,0 4,0 0,1.3333 0,2.6667 0,4 -1.333333,0 -2.666667,0 -4,0 0,-1.3333 0,-2.6667 0,-4 z"
       id="path4140"
       inkscape:connector-curvature="0" />
  </g>
</svg>
